<svg width="128" height="128" viewBox="0 0 128 128" fill="none" xmlns="http://www.w3.org/2000/svg">
<g filter="url(#filter0_d_2038_173)">
<path fill-rule="evenodd" clip-rule="evenodd" d="M64.1024 0H63.8976C28.6208 0.0554667 0 28.7147 0 64C0 99.3237 28.6763 128 64 128C99.3237 128 128 99.3237 128 64C128 28.7147 99.3792 0.0554667 64.1024 0ZM60.0149 94.0075C55.4923 94.3317 51.1147 95.1936 46.9547 96.5376C48.4864 101.739 50.3808 106.308 52.5696 110.05C54.7627 113.801 57.1435 116.723 59.7845 118.263L60.0149 94.0075ZM68.5483 94.0501L68.3179 118.204C70.9205 116.646 73.2672 113.749 75.4304 110.05C77.6192 106.308 79.5136 101.739 81.0453 96.5376C77.056 95.2491 72.8704 94.4043 68.5483 94.0501ZM39.0528 99.7888C35.2939 101.687 31.7824 104 28.5739 106.667C33.9225 111.12 40.0628 114.524 46.6731 116.702C46.157 115.936 45.6661 115.153 45.2011 114.355C42.8373 110.31 40.7552 105.387 39.0528 99.7888ZM88.9472 99.7888C87.2448 105.387 85.1627 110.31 82.7989 114.355C82.3339 115.153 81.843 115.936 81.3269 116.702C87.9376 114.525 94.0781 111.121 99.4261 106.667C96.2033 103.987 92.6881 101.679 88.9472 99.7888ZM119.305 68.2667H93.8027C93.5969 76.0259 92.6959 83.751 91.1104 91.3493C96.3318 93.7985 101.199 96.9416 105.579 100.693C113.571 91.6724 118.391 80.284 119.305 68.2667ZM34.1973 68.2667H8.69547C9.61014 80.2837 14.4305 91.6716 22.4213 100.693C26.8025 96.943 31.6691 93.8001 36.8896 91.3493C35.3038 83.7511 34.4028 76.0259 34.1973 68.2667ZM85.2693 68.2667H68.7915L68.6293 85.4997C73.6213 85.8539 78.4597 86.7883 83.072 88.2261C84.288 82.0907 85.0475 75.3579 85.2693 68.2667ZM60.096 85.4528L60.2581 68.2667H42.7307C42.9525 75.3579 43.712 82.0907 44.928 88.2261C49.8533 86.6921 54.9465 85.7609 60.096 85.4528ZM22.4213 27.3067C14.4292 36.3276 9.6086 47.716 8.69547 59.7333H34.1973C34.4405 51.4987 35.3877 43.6992 36.8896 36.6507C31.6682 34.2015 26.8015 31.0584 22.4213 27.3067ZM83.072 39.7739C78.5091 41.1973 73.8002 42.1018 69.0347 42.4704L68.8725 59.7333H85.2693C85.0817 53.0314 84.3468 46.3561 83.072 39.7739ZM105.579 27.3067C101.197 31.057 96.3309 34.1999 91.1104 36.6507C92.6123 43.6992 93.5595 51.4944 93.8027 59.7333H119.305C118.39 47.7164 113.569 36.3284 105.579 27.3067ZM44.928 39.7739C43.6532 46.3561 42.9183 53.0314 42.7307 59.7333H60.3392L60.5013 42.5728C55.2142 42.2893 49.9829 41.3491 44.928 39.7739ZM60.8128 9.21173C57.7579 10.5387 55.0443 13.7173 52.5696 17.9499C50.3808 21.6917 48.4864 26.2613 46.9547 31.4624C51.2896 32.8619 55.8549 33.7408 60.5781 34.0309L60.8128 9.21173ZM69.3376 10.4832L69.1157 33.8987C73.1699 33.5288 77.1708 32.7117 81.0453 31.4624C79.5136 26.2613 77.6192 21.6917 75.4304 17.9499C73.5531 14.7371 71.5349 12.1301 69.3376 10.4832ZM81.3269 11.2981C81.8304 12.0448 82.3211 12.8256 82.7989 13.6448C85.1627 17.6896 87.2448 22.6133 88.9472 28.2112C92.6881 26.3205 96.2033 24.0133 99.4261 21.3333C94.0775 16.8803 87.9372 13.4758 81.3269 11.2981ZM46.6731 11.2981C40.0624 13.4748 33.9219 16.8795 28.5739 21.3333C31.7967 24.0133 35.312 26.3205 39.0528 28.2112C40.7552 22.6133 42.8373 17.6896 45.2011 13.6448C45.6789 12.8256 46.1696 12.0448 46.6731 11.2981Z" fill="#065BBA"/>
</g>
<defs>
<filter id="filter0_d_2038_173" x="-20" y="-12" width="168" height="168" filterUnits="userSpaceOnUse" color-interpolation-filters="sRGB">
<feFlood flood-opacity="0" result="BackgroundImageFix"/>
<feColorMatrix in="SourceAlpha" type="matrix" values="0 0 0 0 0 0 0 0 0 0 0 0 0 0 0 0 0 0 127 0" result="hardAlpha"/>
<feOffset dy="8"/>
<feGaussianBlur stdDeviation="10"/>
<feComposite in2="hardAlpha" operator="out"/>
<feColorMatrix type="matrix" values="0 0 0 0 0.563768 0 0 0 0 0.764169 0 0 0 0 0.951641 0 0 0 0.14 0"/>
<feBlend mode="normal" in2="BackgroundImageFix" result="effect1_dropShadow_2038_173"/>
<feBlend mode="normal" in="SourceGraphic" in2="effect1_dropShadow_2038_173" result="shape"/>
</filter>
</defs>
</svg>
