<svg width="126" height="18" viewBox="0 0 126 18" fill="none" xmlns="http://www.w3.org/2000/svg">
<path d="M0.918193 8.96582C0.918193 7.64974 1.08653 6.47139 1.4232 5.43078C1.75987 4.39016 2.24192 3.51787 2.86935 2.81393C3.51209 2.09468 4.29255 1.55141 5.21074 1.18413C6.12893 0.801554 7.16955 0.610264 8.3326 0.610264C9.57216 0.610264 10.651 0.816857 11.5692 1.23004C12.5027 1.62793 13.2755 2.19415 13.8877 2.9287C14.5151 3.66325 14.9818 4.54319 15.2879 5.5685C15.6093 6.59382 15.77 7.72626 15.77 8.96582C15.77 10.2819 15.594 11.4602 15.242 12.5009C14.9053 13.5415 14.4156 14.4214 13.7729 15.1407C13.1302 15.8446 12.3497 16.3879 11.4315 16.7705C10.5133 17.1377 9.48034 17.3214 8.3326 17.3214C7.09304 17.3214 6.00651 17.1224 5.07301 16.7245C4.15482 16.3114 3.38201 15.7375 2.75458 15.0029C2.14245 14.2684 1.68335 13.3884 1.37729 12.3631C1.07122 11.3378 0.918193 10.2054 0.918193 8.96582ZM4.5221 8.96582C4.5221 9.76158 4.59861 10.4885 4.75165 11.1465C4.90468 11.8046 5.13423 12.3708 5.44029 12.8452C5.74635 13.3196 6.13659 13.6869 6.61099 13.947C7.10069 14.2072 7.67456 14.3372 8.3326 14.3372C9.54155 14.3372 10.4827 13.9241 11.156 13.0977C11.8294 12.2713 12.1661 10.894 12.1661 8.96582C12.1661 8.20066 12.0972 7.48906 11.9595 6.83102C11.8217 6.17298 11.5922 5.60676 11.2708 5.13236C10.9647 4.64266 10.5669 4.26773 10.0772 4.00758C9.60276 3.73212 9.02124 3.59439 8.3326 3.59439C7.13895 3.59439 6.20545 4.02288 5.53211 4.87986C4.85877 5.73684 4.5221 7.09882 4.5221 8.96582ZM29.9689 16.3114C29.4639 16.6633 28.7982 16.9158 27.9719 17.0689C27.1455 17.2372 26.2962 17.3214 25.4239 17.3214C24.3986 17.3214 23.4115 17.1683 22.4627 16.8623C21.5292 16.5562 20.6952 16.0665 19.9606 15.3932C19.2414 14.7198 18.6675 13.8552 18.239 12.7993C17.8105 11.7433 17.5963 10.4655 17.5963 8.96582C17.5963 7.40489 17.8411 6.09646 18.3309 5.04054C18.8206 3.96932 19.448 3.11234 20.2131 2.4696C20.9783 1.81157 21.8276 1.33717 22.7611 1.04641C23.6946 0.755644 24.6128 0.610264 25.5157 0.610264C26.5104 0.610264 27.3444 0.671477 28.0178 0.793903C28.7064 0.916329 29.2726 1.06171 29.7164 1.23004L29.0507 4.07644C28.6682 3.90811 28.2167 3.78568 27.6964 3.70916C27.1914 3.63265 26.5487 3.59439 25.7682 3.59439C25.0796 3.59439 24.4521 3.70916 23.8859 3.93871C23.335 4.15296 22.8606 4.48198 22.4627 4.92577C22.0648 5.36956 21.7511 5.92813 21.5216 6.60147C21.3073 7.27481 21.2002 8.06293 21.2002 8.96582C21.2002 9.76158 21.2997 10.4885 21.4986 11.1465C21.6976 11.8046 21.996 12.3708 22.3939 12.8452C22.7917 13.3196 23.2967 13.6869 23.9089 13.947C24.521 14.2072 25.2326 14.3372 26.0437 14.3372C26.7935 14.3372 27.421 14.2684 27.926 14.1306C28.4463 13.9929 28.9054 13.8169 29.3033 13.6027L29.9689 16.3114ZM39.646 13.5797H34.2287L32.9202 17H29.5229L35.8126 0.816857H38.3146L44.6272 17H41.0233L39.646 13.5797ZM35.1698 10.894H38.8426L37.603 7.54262L37.0521 4.99463H36.9373L36.3864 7.56557L35.1698 10.894ZM56.27 3.91576H49.5212V17H46.1239V0.931631H56.27V3.91576ZM56.4446 8.96582C56.4446 7.64974 56.613 6.47139 56.9496 5.43078C57.2863 4.39016 57.7684 3.51787 58.3958 2.81393C59.0385 2.09468 59.819 1.55141 60.7372 1.18413C61.6554 0.801554 62.696 0.610264 63.859 0.610264C65.0986 0.610264 66.1775 0.816857 67.0957 1.23004C68.0292 1.62793 68.802 2.19415 69.4141 2.9287C70.0415 3.66325 70.5083 4.54319 70.8143 5.5685C71.1357 6.59382 71.2964 7.72626 71.2964 8.96582C71.2964 10.2819 71.1204 11.4602 70.7684 12.5009C70.4318 13.5415 69.9421 14.4214 69.2993 15.1407C68.6566 15.8446 67.8761 16.3879 66.9579 16.7705C66.0397 17.1377 65.0068 17.3214 63.859 17.3214C62.6195 17.3214 61.5329 17.1224 60.5994 16.7245C59.6813 16.3114 58.9084 15.7375 58.281 15.0029C57.6689 14.2684 57.2098 13.3884 56.9037 12.3631C56.5977 11.3378 56.4446 10.2054 56.4446 8.96582ZM60.0485 8.96582C60.0485 9.76158 60.125 10.4885 60.2781 11.1465C60.4311 11.8046 60.6607 12.3708 60.9667 12.8452C61.2728 13.3196 61.663 13.6869 62.1374 13.947C62.6271 14.2072 63.201 14.3372 63.859 14.3372C65.068 14.3372 66.0091 13.9241 66.6825 13.0977C67.3558 12.2713 67.6925 10.894 67.6925 8.96582C67.6925 8.20066 67.6236 7.48906 67.4859 6.83102C67.3482 6.17298 67.1186 5.60676 66.7972 5.13236C66.4912 4.64266 66.0933 4.26773 65.6036 4.00758C65.1292 3.73212 64.5477 3.59439 63.859 3.59439C62.6654 3.59439 61.7319 4.02288 61.0585 4.87986C60.3852 5.73684 60.0485 7.09882 60.0485 8.96582ZM73.5589 8.96582H79.8255V11.8122H73.5589V8.96582ZM94.4162 4.71918C94.4162 5.11706 94.355 5.51494 94.2325 5.91283C94.1254 6.29541 93.9494 6.65503 93.7046 6.9917C93.4597 7.32837 93.1384 7.61913 92.7405 7.86398C92.3426 8.10884 91.8605 8.28482 91.2943 8.39195V8.52967C91.7993 8.57558 92.2737 8.69036 92.7175 8.874C93.1613 9.05764 93.5439 9.31779 93.8653 9.65446C94.2019 9.97583 94.4621 10.3737 94.6457 10.8481C94.8447 11.3072 94.9441 11.8505 94.9441 12.4779C94.9441 13.3196 94.7452 14.0388 94.3473 14.6357C93.9647 15.2325 93.4597 15.7222 92.8323 16.1048C92.2049 16.4873 91.4856 16.7705 90.6745 16.9541C89.8635 17.1377 89.0371 17.2295 88.1954 17.2295C87.92 17.2295 87.5527 17.2295 87.0936 17.2295C86.6498 17.2295 86.1678 17.2142 85.6474 17.1836C85.1424 17.1683 84.6221 17.1377 84.0865 17.0918C83.5662 17.0459 83.0918 16.977 82.6633 16.8852V1.04641C82.9847 1.0005 83.3443 0.954587 83.7422 0.908677C84.1554 0.862767 84.5915 0.824509 85.0506 0.793903C85.525 0.763297 86.0071 0.740342 86.4968 0.725038C86.9865 0.709735 87.4762 0.702083 87.9659 0.702083C88.7616 0.702083 89.5421 0.763296 90.3073 0.885722C91.0724 0.992844 91.7611 1.19944 92.3732 1.5055C92.9853 1.79626 93.475 2.2018 93.8423 2.72211C94.2249 3.24242 94.4162 3.90811 94.4162 4.71918ZM88.1495 14.475C88.578 14.475 88.9835 14.4367 89.3661 14.3602C89.764 14.2837 90.1083 14.1613 90.3991 13.9929C90.7052 13.8093 90.9424 13.5874 91.1107 13.3272C91.2943 13.0518 91.3861 12.7151 91.3861 12.3172C91.3861 11.8275 91.279 11.4373 91.0648 11.1465C90.8505 10.8558 90.5674 10.6415 90.2155 10.5038C89.8788 10.3508 89.4962 10.2589 89.0677 10.2283C88.6545 10.1824 88.2337 10.1595 87.8052 10.1595H85.9229V14.3372C86.0147 14.3678 86.1448 14.3908 86.3131 14.4061C86.4968 14.4214 86.6957 14.4367 86.91 14.452C87.1242 14.452 87.3384 14.4597 87.5527 14.475C87.7822 14.475 87.9812 14.475 88.1495 14.475ZM87.0706 7.63444C87.3002 7.63444 87.568 7.63444 87.8741 7.63444C88.1954 7.61913 88.4632 7.59618 88.6775 7.56557C89.3202 7.36663 89.8635 7.09882 90.3073 6.76215C90.7511 6.41018 90.973 5.93578 90.973 5.33896C90.973 4.94107 90.8888 4.6197 90.7205 4.37485C90.5521 4.13 90.3226 3.93871 90.0318 3.80098C89.7564 3.66325 89.4426 3.57143 89.0907 3.52553C88.7387 3.47962 88.3791 3.45666 88.0118 3.45666C87.568 3.45666 87.1625 3.46431 86.7952 3.47962C86.4279 3.49492 86.1371 3.51787 85.9229 3.54848V7.63444H87.0706ZM106 13.5797H100.582L99.274 17H95.8767L102.166 0.816857H104.668L110.981 17H107.377L106 13.5797ZM101.524 10.894H105.196L103.957 7.54262L103.406 4.99463H103.291L102.74 7.56557L101.524 10.894ZM111.142 8.96582C111.142 7.64974 111.31 6.47139 111.647 5.43078C111.983 4.39016 112.465 3.51787 113.093 2.81393C113.736 2.09468 114.516 1.55141 115.434 1.18413C116.352 0.801554 117.393 0.610264 118.556 0.610264C119.796 0.610264 120.874 0.816857 121.793 1.23004C122.726 1.62793 123.499 2.19415 124.111 2.9287C124.739 3.66325 125.205 4.54319 125.511 5.5685C125.833 6.59382 125.993 7.72626 125.993 8.96582C125.993 10.2819 125.817 11.4602 125.465 12.5009C125.129 13.5415 124.639 14.4214 123.996 15.1407C123.354 15.8446 122.573 16.3879 121.655 16.7705C120.737 17.1377 119.704 17.3214 118.556 17.3214C117.316 17.3214 116.23 17.1224 115.296 16.7245C114.378 16.3114 113.605 15.7375 112.978 15.0029C112.366 14.2684 111.907 13.3884 111.601 12.3631C111.295 11.3378 111.142 10.2054 111.142 8.96582ZM114.746 8.96582C114.746 9.76158 114.822 10.4885 114.975 11.1465C115.128 11.8046 115.358 12.3708 115.664 12.8452C115.97 13.3196 116.36 13.6869 116.834 13.947C117.324 14.2072 117.898 14.3372 118.556 14.3372C119.765 14.3372 120.706 13.9241 121.379 13.0977C122.053 12.2713 122.389 10.894 122.389 8.96582C122.389 8.20066 122.321 7.48906 122.183 6.83102C122.045 6.17298 121.816 5.60676 121.494 5.13236C121.188 4.64266 120.79 4.26773 120.301 4.00758C119.826 3.73212 119.245 3.59439 118.556 3.59439C117.362 3.59439 116.429 4.02288 115.756 4.87986C115.082 5.73684 114.746 7.09882 114.746 8.96582Z" fill="#065BBA"/>
</svg>
