<svg width="133" height="20" viewBox="0 0 133 20" fill="none" xmlns="http://www.w3.org/2000/svg">
<path d="M11.2079 0L14.7406 6.49415L22.4157 7.63932L16.9239 12.7981L18.1347 20L11.2079 16.6941L4.28102 20L5.49185 12.7981L0 7.63932L7.67518 6.49415L11.2079 0Z" fill="#FFAD50"/>
<path d="M38.8539 0L42.3866 6.49415L50.0618 7.63932L44.5699 12.7981L45.7808 20L38.8539 16.6941L31.9271 20L33.1379 12.7981L27.6461 7.63932L35.3212 6.49415L38.8539 0Z" fill="#FFAD50"/>
<path d="M66.5 0L70.0327 6.49415L77.7079 7.63932L72.216 12.7981L73.4268 20L66.5 16.6941L59.5732 20L60.784 12.7981L55.2921 7.63932L62.9673 6.49415L66.5 0Z" fill="#FFAD50"/>
<path d="M94.1461 0L97.6788 6.49415L105.354 7.63932L99.8621 12.7981L101.073 20L94.1461 16.6941L87.2192 20L88.4301 12.7981L82.9382 7.63932L90.6134 6.49415L94.1461 0Z" fill="#FFAD50"/>
<path d="M121.792 0L125.325 6.49415L133 7.63932L127.508 12.7981L128.719 20L121.792 16.6941L114.865 20L116.076 12.7981L110.584 7.63932L118.259 6.49415L121.792 0Z" fill="#FFAD50"/>
</svg>
