<svg width="65" height="65" viewBox="0 0 65 65" fill="none" xmlns="http://www.w3.org/2000/svg">
<g clip-path="url(#clip0_2049_177)">
<g filter="url(#filter0_i_2049_177)">
<circle cx="32.5" cy="32.5" r="32.5" fill="#065BBA"/>
</g>
<path d="M45.6818 39.0909H19.3182C18.9686 39.0909 18.6333 39.2298 18.3861 39.477C18.1389 39.7242 18 40.0595 18 40.4091C18 40.7587 18.1389 41.094 18.3861 41.3412C18.6333 41.5884 18.9686 41.7273 19.3182 41.7273H45.6818C46.0314 41.7273 46.3667 41.5884 46.6139 41.3412C46.8611 41.094 47 40.7587 47 40.4091C47 40.0595 46.8611 39.7242 46.6139 39.477C46.3667 39.2298 46.0314 39.0909 45.6818 39.0909ZM45.6818 44.3636H19.3182C18.9686 44.3636 18.6333 44.5025 18.3861 44.7497C18.1389 44.9969 18 45.3322 18 45.6818C18 46.0314 18.1389 46.3667 18.3861 46.6139C18.6333 46.8611 18.9686 47 19.3182 47H45.6818C46.0314 47 46.3667 46.8611 46.6139 46.6139C46.8611 46.3667 47 46.0314 47 45.6818C47 45.3322 46.8611 44.9969 46.6139 44.7497C46.3667 44.5025 46.0314 44.3636 45.6818 44.3636ZM24.5909 25.9091C24.3302 25.9091 24.0753 25.9864 23.8586 26.1312C23.6418 26.2761 23.4728 26.482 23.3731 26.7228C23.2733 26.9637 23.2472 27.2287 23.2981 27.4844C23.3489 27.7401 23.4745 27.975 23.6588 28.1594C23.8432 28.3437 24.078 28.4693 24.3337 28.5201C24.5894 28.571 24.8545 28.5449 25.0954 28.4451C25.3362 28.3453 25.5421 28.1764 25.6869 27.9596C25.8318 27.7428 25.9091 27.488 25.9091 27.2273C25.9091 26.8777 25.7702 26.5424 25.523 26.2952C25.2758 26.048 24.9405 25.9091 24.5909 25.9091ZM43.0455 18H21.9545C20.9057 18 19.8999 18.4166 19.1583 19.1583C18.4166 19.8999 18 20.9057 18 21.9545V32.5C18 33.5488 18.4166 34.5547 19.1583 35.2963C19.8999 36.0379 20.9057 36.4545 21.9545 36.4545H43.0455C44.0943 36.4545 45.1001 36.0379 45.8417 35.2963C46.5834 34.5547 47 33.5488 47 32.5V21.9545C47 20.9057 46.5834 19.8999 45.8417 19.1583C45.1001 18.4166 44.0943 18 43.0455 18ZM44.3636 32.5C44.3636 32.8496 44.2248 33.1849 43.9776 33.4321C43.7303 33.6793 43.3951 33.8182 43.0455 33.8182H21.9545C21.6049 33.8182 21.2697 33.6793 21.0225 33.4321C20.7752 33.1849 20.6364 32.8496 20.6364 32.5V21.9545C20.6364 21.6049 20.7752 21.2697 21.0225 21.0225C21.2697 20.7752 21.6049 20.6364 21.9545 20.6364H43.0455C43.3951 20.6364 43.7303 20.7752 43.9776 21.0225C44.2248 21.2697 44.3636 21.6049 44.3636 21.9545V32.5ZM32.5 23.2727C31.7179 23.2727 30.9533 23.5047 30.303 23.9392C29.6527 24.3737 29.1458 24.9913 28.8465 25.7139C28.5472 26.4365 28.4689 27.2317 28.6214 27.9988C28.774 28.7659 29.1507 29.4705 29.7037 30.0236C30.2568 30.5766 30.9614 30.9532 31.7285 31.1058C32.4956 31.2584 33.2907 31.1801 34.0133 30.8808C34.7359 30.5815 35.3536 30.0746 35.7881 29.4243C36.2226 28.774 36.4545 28.0094 36.4545 27.2273C36.4545 26.1785 36.0379 25.1726 35.2963 24.431C34.5547 23.6894 33.5488 23.2727 32.5 23.2727ZM32.5 28.5455C32.2393 28.5455 31.9844 28.4681 31.7677 28.3233C31.5509 28.1785 31.3819 27.9726 31.2822 27.7317C31.1824 27.4909 31.1563 27.2258 31.2071 26.9701C31.258 26.7144 31.3836 26.4795 31.5679 26.2952C31.7523 26.1108 31.9871 25.9853 32.2428 25.9344C32.4985 25.8836 32.7636 25.9097 33.0044 26.0094C33.2453 26.1092 33.4512 26.2782 33.596 26.4949C33.7409 26.7117 33.8182 26.9666 33.8182 27.2273C33.8182 27.5769 33.6793 27.9122 33.4321 28.1594C33.1849 28.4066 32.8496 28.5455 32.5 28.5455ZM40.4091 25.9091C40.1484 25.9091 39.8935 25.9864 39.6767 26.1312C39.46 26.2761 39.291 26.482 39.1912 26.7228C39.0915 26.9637 39.0654 27.2287 39.1162 27.4844C39.1671 27.7401 39.2926 27.975 39.477 28.1594C39.6613 28.3437 39.8962 28.4693 40.1519 28.5201C40.4076 28.571 40.6727 28.5449 40.9135 28.4451C41.1544 28.3453 41.3603 28.1764 41.5051 27.9596C41.65 27.7428 41.7273 27.488 41.7273 27.2273C41.7273 26.8777 41.5884 26.5424 41.3412 26.2952C41.094 26.048 40.7587 25.9091 40.4091 25.9091Z" fill="#E4ECED"/>
</g>
<defs>
<filter id="filter0_i_2049_177" x="0" y="0" width="65" height="65" filterUnits="userSpaceOnUse" color-interpolation-filters="sRGB">
<feFlood flood-opacity="0" result="BackgroundImageFix"/>
<feBlend mode="normal" in="SourceGraphic" in2="BackgroundImageFix" result="shape"/>
<feColorMatrix in="SourceAlpha" type="matrix" values="0 0 0 0 0 0 0 0 0 0 0 0 0 0 0 0 0 0 127 0" result="hardAlpha"/>
<feOffset/>
<feGaussianBlur stdDeviation="6.4"/>
<feComposite in2="hardAlpha" operator="arithmetic" k2="-1" k3="1"/>
<feColorMatrix type="matrix" values="0 0 0 0 0.109881 0 0 0 0 0.30695 0 0 0 0 0.491305 0 0 0 0.89 0"/>
<feBlend mode="normal" in2="shape" result="effect1_innerShadow_2049_177"/>
</filter>
<clipPath id="clip0_2049_177">
<rect width="65" height="65" fill="white"/>
</clipPath>
</defs>
</svg>
