<svg width="65" height="65" viewBox="0 0 65 65" fill="none" xmlns="http://www.w3.org/2000/svg">
<g filter="url(#filter0_i_116_2249)">
<circle cx="32.5" cy="32.5" r="32.5" fill="#065BBA"/>
</g>
<path d="M38.787 29.1307L30.4043 37.4148L26.213 33.2727M20 30.8014V22.1762C20 21.8642 20.1197 21.5651 20.3328 21.3445C20.5459 21.1239 20.835 21 21.1364 21H43.8636C44.165 21 44.4541 21.1239 44.6672 21.3445C44.8803 21.5651 45 21.8642 45 22.1762V30.8014C45 43.1533 34.8713 47.2456 32.8489 47.9396C32.6228 48.0201 32.3772 48.0201 32.1511 47.9396C30.1287 47.2456 20 43.1533 20 30.8014Z" stroke="#E4ECED" stroke-width="3" stroke-linecap="round" stroke-linejoin="round"/>
<defs>
<filter id="filter0_i_116_2249" x="0" y="0" width="65" height="65" filterUnits="userSpaceOnUse" color-interpolation-filters="sRGB">
<feFlood flood-opacity="0" result="BackgroundImageFix"/>
<feBlend mode="normal" in="SourceGraphic" in2="BackgroundImageFix" result="shape"/>
<feColorMatrix in="SourceAlpha" type="matrix" values="0 0 0 0 0 0 0 0 0 0 0 0 0 0 0 0 0 0 127 0" result="hardAlpha"/>
<feOffset/>
<feGaussianBlur stdDeviation="6.4"/>
<feComposite in2="hardAlpha" operator="arithmetic" k2="-1" k3="1"/>
<feColorMatrix type="matrix" values="0 0 0 0 0.109881 0 0 0 0 0.30695 0 0 0 0 0.491305 0 0 0 0.89 0"/>
<feBlend mode="normal" in2="shape" result="effect1_innerShadow_116_2249"/>
</filter>
</defs>
</svg>
