<svg width="65" height="65" viewBox="0 0 65 65" fill="none" xmlns="http://www.w3.org/2000/svg">
<g filter="url(#filter0_i_116_2244)">
<circle cx="32.5" cy="32.5" r="32.5" fill="#065BBA"/>
</g>
<path d="M31.9876 27.1C34.4552 27.1 36.5332 28.855 37.0527 31.285C37.1826 31.96 37.9618 32.5 38.6112 32.23C39.2606 32.095 39.7801 31.285 39.5203 30.61C38.7411 26.83 35.6241 24.4 31.9876 24.4C27.7017 24.4 24.195 28.045 24.195 32.5C24.195 36.685 27.312 40.195 31.3382 40.6H31.4681C32.1174 40.6 32.6369 40.06 32.7668 39.385C32.8967 38.71 32.2473 38.035 31.5979 37.9C29.0004 37.63 26.7925 35.2 26.7925 32.5C26.7925 29.53 29.1303 27.1 31.9876 27.1Z" fill="#E4ECED"/>
<path d="M31.9876 43.3C26.273 43.3 21.5975 38.44 21.5975 32.5C21.5975 26.56 26.273 21.7 31.9876 21.7C37.4423 21.7 41.988 26.155 42.3776 31.825C42.3776 32.635 43.027 33.175 43.8062 33.04C44.5855 33.04 45.105 32.365 44.9751 31.555C44.4556 24.535 38.871 19 31.9876 19C24.8444 19 19 25.075 19 32.5C19 39.925 24.8444 46 31.9876 46C32.7668 46 33.2863 45.46 33.2863 44.65C33.2863 43.84 32.7668 43.3 31.9876 43.3Z" fill="#E4ECED"/>
<path d="M44.066 35.875C43.9361 35.74 43.6764 35.605 43.5465 35.605L35.1046 32.635C34.3253 32.365 33.4162 32.635 32.7668 33.31C32.1174 33.985 31.9876 34.93 32.3772 35.74L36.2735 44.65C36.6631 45.46 37.4423 46 38.2216 46H38.6112C39.6502 45.865 40.2996 45.055 40.4295 43.975L40.8191 40.735L43.4166 39.925C44.1959 39.655 44.8452 38.98 44.9751 38.035C45.105 37.225 44.7154 36.28 44.066 35.875ZM39.91 38.17C39.0008 38.44 38.4813 39.115 38.3515 40.06L38.0917 42.085L35.2344 35.47L41.4685 37.63L39.91 38.17Z" fill="#E4ECED"/>
<defs>
<filter id="filter0_i_116_2244" x="0" y="0" width="65" height="65" filterUnits="userSpaceOnUse" color-interpolation-filters="sRGB">
<feFlood flood-opacity="0" result="BackgroundImageFix"/>
<feBlend mode="normal" in="SourceGraphic" in2="BackgroundImageFix" result="shape"/>
<feColorMatrix in="SourceAlpha" type="matrix" values="0 0 0 0 0 0 0 0 0 0 0 0 0 0 0 0 0 0 127 0" result="hardAlpha"/>
<feOffset/>
<feGaussianBlur stdDeviation="6.4"/>
<feComposite in2="hardAlpha" operator="arithmetic" k2="-1" k3="1"/>
<feColorMatrix type="matrix" values="0 0 0 0 0.109881 0 0 0 0 0.30695 0 0 0 0 0.491305 0 0 0 0.89 0"/>
<feBlend mode="normal" in2="shape" result="effect1_innerShadow_116_2244"/>
</filter>
</defs>
</svg>
